Coordinates
version=1
nRows=8
nColumns=63
inDegrees=yes

Units are S.I. units (second, meters, Newtons, ...)
If the header above contains a line with 'inDegrees', this indicates whether rotational values are in degrees (yes) or radians (no).

endheader
time	pelvis_tilt	pelvis_list	pelvis_rotation	pelvis_tx	pelvis_ty	pelvis_tz	hip_flexion_r	hip_adduction_r	hip_rotation_r	knee_angle_r	knee_angle_r_beta	ankle_angle_r	subtalar_angle_r	mtp_angle_r	hip_flexion_l	hip_adduction_l	hip_rotation_l	knee_angle_l	knee_angle_l_beta	ankle_angle_l	subtalar_angle_l	mtp_angle_l	L5_S1_Flex_Ext	L5_S1_Lat_Bending	L5_S1_axial_rotation	L4_L5_Flex_Ext	L4_L5_Lat_Bending	L4_L5_axial_rotation	L3_L4_Flex_Ext	L3_L4_Lat_Bending	L3_L4_axial_rotation	L2_L3_Flex_Ext	L2_L3_Lat_Bending	L2_L3_axial_rotation	L1_L2_Flex_Ext	L1_L2_Lat_Bending	L1_L2_axial_rotation	L1_T12_Flex_Ext	L1_T12_Lat_Bending	L1_T12_axial_rotation	Abs_r3	Abs_r2	Abs_r1	Abs_t1	Abs_t2	neck_flexion	neck_bending	neck_rotation	arm_flex_r	arm_add_r	arm_rot_r	elbow_flex_r	pro_sup_r	wrist_flex_r	wrist_dev_r	arm_flex_l	arm_add_l	arm_rot_l	elbow_flex_l	pro_sup_l	wrist_flex_l	wrist_dev_l
4.800000	-11.041696	-0.484491	95.266002	0.183667	0.998817	0.507740	-4.129236	-6.968732	-20.261451	8.177346	0.142722	18.737739	17.399570	0.000000	1.286396	4.160123	-8.929533	14.666089	0.255972	18.416109	2.589831	0.000000	-0.300761	-0.541579	-0.594745	-0.558543	-0.720300	-0.631916	-0.494120	-1.316796	-0.631916	-0.343739	-1.316796	-0.520402	-0.279286	-1.104388	-0.483230	-0.171855	-0.838906	-0.446059	-2.148304	-6.126453	-3.307792	0.000000	0.000000	0.295056	-0.875033	-5.232055	49.360973	-17.264331	15.788008	79.863993	74.735703	-9.263896	14.698660	63.078546	-2.154377	31.416865	58.020512	76.239817	-6.800356	3.637867
4.820000	-11.146611	-0.240773	95.297976	0.184100	0.998996	0.508459	-4.473559	-6.946268	-19.953494	7.881512	0.137558	18.914262	17.314517	0.000000	1.015196	4.271033	-8.946519	14.623880	0.255235	18.606013	2.470187	0.000000	-0.313473	-0.522107	-0.673769	-0.582151	-0.694402	-0.715880	-0.515005	-1.269451	-0.715880	-0.358269	-1.269451	-0.589548	-0.291091	-1.064681	-0.547438	-0.179119	-0.808744	-0.505327	-2.239109	-5.906179	-3.747303	0.000000	0.000000	0.308400	-1.201913	-4.043916	53.177640	-16.788350	18.292135	73.493417	71.728456	-10.085721	18.547204	65.705810	-1.450201	32.590731	51.698100	79.304640	-9.137253	3.733381
4.840000	-11.228849	-0.049766	95.392752	0.184556	0.998813	0.509056	-4.723636	-6.904441	-19.658556	7.677606	0.134000	19.240345	17.235670	0.000000	0.826548	4.368704	-8.895417	14.631986	0.255376	18.937757	2.301335	0.000000	-0.320843	-0.503153	-0.737700	-0.595837	-0.669193	-0.783806	-0.527112	-1.223366	-0.783806	-0.366691	-1.223366	-0.645487	-0.297935	-1.026029	-0.599381	-0.183330	-0.779384	-0.553275	-2.291747	-5.691765	-4.102865	0.000000	0.000000	0.472265	-1.390788	-2.973836	56.332340	-16.334381	20.574712	68.091977	68.734881	-10.859896	22.295126	67.970921	-0.960002	33.991604	46.388082	82.495112	-11.365338	3.850424
4.860000	-11.267468	0.069076	95.581782	0.185006	0.998349	0.509571	-4.855477	-6.824217	-19.425943	7.566075	0.132053	19.676667	17.164660	0.000000	0.739461	4.428549	-8.796839	14.671944	0.256074	19.380159	2.166324	0.000000	-0.319695	-0.483586	-0.798458	-0.593706	-0.643170	-0.848362	-0.525228	-1.175792	-0.848362	-0.365380	-1.175792	-0.698651	-0.296869	-0.986129	-0.648747	-0.182674	-0.749075	-0.598844	-2.283553	-5.470426	-4.440785	0.000000	0.000000	0.751420	-1.458348	-2.063549	58.800573	-15.897937	22.551583	63.769964	66.003507	-11.544118	25.704584	69.788804	-0.686671	35.486275	42.203716	85.384233	-13.238922	4.104587
4.880000	-11.257964	0.134679	95.859823	0.185435	0.997715	0.510049	-4.882703	-6.701967	-19.241085	7.552465	0.131815	20.207717	17.099587	0.000000	0.730812	4.449212	-8.631606	14.728489	0.257061	19.877112	2.014028	0.000000	-0.314664	-0.462693	-0.857906	-0.584362	-0.615382	-0.911525	-0.516961	-1.124992	-0.911525	-0.359629	-1.124992	-0.750668	-0.292197	-0.943524	-0.697049	-0.179799	-0.716712	-0.643430	-2.247613	-5.234077	-4.771417	0.000000	0.000000	1.109721	-1.426059	-1.346599	60.609389	-15.566241	24.243734	60.672500	63.311954	-12.362723	28.756394	71.172265	-0.622543	37.165331	39.143370	87.557098	-14.730297	4.461615
4.900000	-11.194910	0.130894	96.228992	0.185826	0.996973	0.510534	-4.791729	-6.536341	-19.129550	7.623759	0.133060	20.791743	17.036716	0.000000	0.806872	4.417519	-8.496372	14.774607	0.257866	20.417834	2.025356	0.000000	-0.303469	-0.439987	-0.921937	-0.563572	-0.585183	-0.979558	-0.498569	-1.069785	-0.979558	-0.346835	-1.069785	-0.806695	-0.281801	-0.897222	-0.749074	-0.173402	-0.681541	-0.691453	-2.167648	-4.977226	-5.127535	0.000000	0.000000	1.531859	-1.344774	-0.819909	61.731320	-15.326037	25.476255	58.778427	61.262720	-13.033757	31.090309	72.051719	-0.697761	38.641827	37.180802	88.806098	-15.574165	5.016242
4.920000	-11.083886	0.088814	96.697870	0.186137	0.996178	0.511085	-4.619270	-6.330375	-19.095018	7.779365	0.135776	21.429481	16.967594	0.000000	0.936224	4.338461	-8.359937	14.810708	0.258496	20.980068	2.159460	0.000000	-0.291595	-0.414781	-0.995105	-0.541521	-0.551659	-1.057299	-0.479062	-1.008499	-1.057299	-0.333264	-1.008499	-0.870717	-0.270775	-0.845822	-0.808523	-0.166617	-0.642496	-0.746329	-2.082835	-4.692088	-5.534475	0.000000	0.000000	1.985036	-1.246759	-0.422971	62.242854	-15.229908	26.291374	58.018094	59.776685	-13.531841	32.581360	72.525331	-0.948392	40.024785	36.215009	89.099060	-15.972794	5.600851
4.940000	-10.927138	0.000746	97.249493	0.186363	0.995343	0.511707	-4.372905	-6.085926	-19.133803	7.983825	0.139344	22.073147	16.888677	0.000000	1.113882	4.213117	-8.267440	14.817831	0.258620	21.548926	2.467357	0.000000	-0.277127	-0.388446	-1.071723	-0.514652	-0.516633	-1.138705	-0.455291	-0.944468	-1.138705	-0.316728	-0.944468	-0.937757	-0.257340	-0.792119	-0.870775	-0.158350	-0.601703	-0.803792	-1.979488	-4.394180	-5.960599	0.000000	0.000000	2.431524	-1.167820	-0.251243	62.149478	-15.273093	26.587703	58.235281	59.112044	-13.734541	32.949135	72.587248	-1.254312	40.956791	36.083516	88.585142	-15.846713	6.291166
